<mxfile host="app.diagrams.net" modified="2024-04-22T06:46:52.902Z" agent="Mozilla/5.0 (Windows NT 10.0; Win64; x64) AppleWebKit/537.36 (KHTML, like Gecko) Chrome/123.0.0.0 Safari/537.36" etag="fhOin0X4AgoN_uigBGhF" version="24.2.7" type="github">
  <diagram id="C5RBs43oDa-KdzZeNtuy" name="Page-1">
    <mxGraphModel dx="1221" dy="652" grid="1" gridSize="10" guides="1" tooltips="1" connect="1" arrows="1" fold="1" page="1" pageScale="1" pageWidth="827" pageHeight="1169" math="0" shadow="0">
      <root>
        <mxCell id="WIyWlLk6GJQsqaUBKTNV-0" />
        <mxCell id="WIyWlLk6GJQsqaUBKTNV-1" parent="WIyWlLk6GJQsqaUBKTNV-0" />
        <mxCell id="gemFI4QmH1A-u6PZFKJa-9" style="edgeStyle=orthogonalEdgeStyle;rounded=0;orthogonalLoop=1;jettySize=auto;html=1;exitX=0.5;exitY=1;exitDx=0;exitDy=0;entryX=0.5;entryY=0;entryDx=0;entryDy=0;" edge="1" parent="WIyWlLk6GJQsqaUBKTNV-1" source="WIyWlLk6GJQsqaUBKTNV-3" target="gemFI4QmH1A-u6PZFKJa-8">
          <mxGeometry relative="1" as="geometry" />
        </mxCell>
        <mxCell id="WIyWlLk6GJQsqaUBKTNV-3" value="a5" style="rounded=1;whiteSpace=wrap;html=1;fontSize=12;glass=0;strokeWidth=1;shadow=0;" parent="WIyWlLk6GJQsqaUBKTNV-1" vertex="1">
          <mxGeometry x="40" y="80" width="70" height="40" as="geometry" />
        </mxCell>
        <mxCell id="gemFI4QmH1A-u6PZFKJa-10" style="edgeStyle=orthogonalEdgeStyle;rounded=0;orthogonalLoop=1;jettySize=auto;html=1;exitX=0.5;exitY=1;exitDx=0;exitDy=0;entryX=0.5;entryY=0;entryDx=0;entryDy=0;" edge="1" parent="WIyWlLk6GJQsqaUBKTNV-1" source="WIyWlLk6GJQsqaUBKTNV-7" target="gemFI4QmH1A-u6PZFKJa-8">
          <mxGeometry relative="1" as="geometry" />
        </mxCell>
        <mxCell id="WIyWlLk6GJQsqaUBKTNV-7" value="s1" style="rounded=1;whiteSpace=wrap;html=1;fontSize=12;glass=0;strokeWidth=1;shadow=0;" parent="WIyWlLk6GJQsqaUBKTNV-1" vertex="1">
          <mxGeometry x="120" y="80" width="70" height="40" as="geometry" />
        </mxCell>
        <mxCell id="gemFI4QmH1A-u6PZFKJa-11" style="edgeStyle=orthogonalEdgeStyle;rounded=0;orthogonalLoop=1;jettySize=auto;html=1;exitX=0.5;exitY=1;exitDx=0;exitDy=0;entryX=0.5;entryY=0;entryDx=0;entryDy=0;" edge="1" parent="WIyWlLk6GJQsqaUBKTNV-1" source="gemFI4QmH1A-u6PZFKJa-3" target="gemFI4QmH1A-u6PZFKJa-8">
          <mxGeometry relative="1" as="geometry" />
        </mxCell>
        <mxCell id="gemFI4QmH1A-u6PZFKJa-3" value="s8" style="rounded=1;whiteSpace=wrap;html=1;fontSize=12;glass=0;strokeWidth=1;shadow=0;" vertex="1" parent="WIyWlLk6GJQsqaUBKTNV-1">
          <mxGeometry x="200" y="80" width="70" height="40" as="geometry" />
        </mxCell>
        <mxCell id="gemFI4QmH1A-u6PZFKJa-12" style="edgeStyle=orthogonalEdgeStyle;rounded=0;orthogonalLoop=1;jettySize=auto;html=1;exitX=0.5;exitY=1;exitDx=0;exitDy=0;entryX=0.5;entryY=0;entryDx=0;entryDy=0;" edge="1" parent="WIyWlLk6GJQsqaUBKTNV-1" source="gemFI4QmH1A-u6PZFKJa-4" target="gemFI4QmH1A-u6PZFKJa-8">
          <mxGeometry relative="1" as="geometry" />
        </mxCell>
        <mxCell id="gemFI4QmH1A-u6PZFKJa-4" value="t2" style="rounded=1;whiteSpace=wrap;html=1;fontSize=12;glass=0;strokeWidth=1;shadow=0;" vertex="1" parent="WIyWlLk6GJQsqaUBKTNV-1">
          <mxGeometry x="280" y="80" width="70" height="40" as="geometry" />
        </mxCell>
        <mxCell id="gemFI4QmH1A-u6PZFKJa-14" style="edgeStyle=orthogonalEdgeStyle;rounded=0;orthogonalLoop=1;jettySize=auto;html=1;exitX=0.5;exitY=1;exitDx=0;exitDy=0;entryX=0.5;entryY=0;entryDx=0;entryDy=0;" edge="1" parent="WIyWlLk6GJQsqaUBKTNV-1" source="gemFI4QmH1A-u6PZFKJa-5" target="gemFI4QmH1A-u6PZFKJa-13">
          <mxGeometry relative="1" as="geometry" />
        </mxCell>
        <mxCell id="gemFI4QmH1A-u6PZFKJa-5" value="s6" style="rounded=1;whiteSpace=wrap;html=1;fontSize=12;glass=0;strokeWidth=1;shadow=0;" vertex="1" parent="WIyWlLk6GJQsqaUBKTNV-1">
          <mxGeometry x="360" y="80" width="70" height="40" as="geometry" />
        </mxCell>
        <mxCell id="gemFI4QmH1A-u6PZFKJa-15" style="edgeStyle=orthogonalEdgeStyle;rounded=0;orthogonalLoop=1;jettySize=auto;html=1;exitX=0.5;exitY=1;exitDx=0;exitDy=0;" edge="1" parent="WIyWlLk6GJQsqaUBKTNV-1" source="gemFI4QmH1A-u6PZFKJa-6">
          <mxGeometry relative="1" as="geometry">
            <mxPoint x="440" y="240" as="targetPoint" />
          </mxGeometry>
        </mxCell>
        <mxCell id="gemFI4QmH1A-u6PZFKJa-6" value="s11" style="rounded=1;whiteSpace=wrap;html=1;fontSize=12;glass=0;strokeWidth=1;shadow=0;" vertex="1" parent="WIyWlLk6GJQsqaUBKTNV-1">
          <mxGeometry x="440" y="80" width="70" height="40" as="geometry" />
        </mxCell>
        <mxCell id="gemFI4QmH1A-u6PZFKJa-16" style="edgeStyle=orthogonalEdgeStyle;rounded=0;orthogonalLoop=1;jettySize=auto;html=1;exitX=0.5;exitY=1;exitDx=0;exitDy=0;entryX=0;entryY=0.5;entryDx=0;entryDy=0;strokeColor=default;dashed=1;" edge="1" parent="WIyWlLk6GJQsqaUBKTNV-1" source="gemFI4QmH1A-u6PZFKJa-8" target="gemFI4QmH1A-u6PZFKJa-13">
          <mxGeometry relative="1" as="geometry" />
        </mxCell>
        <mxCell id="gemFI4QmH1A-u6PZFKJa-8" value="csrrw" style="rounded=1;whiteSpace=wrap;html=1;fontSize=12;glass=0;strokeWidth=1;shadow=0;" vertex="1" parent="WIyWlLk6GJQsqaUBKTNV-1">
          <mxGeometry x="160" y="160" width="70" height="40" as="geometry" />
        </mxCell>
        <mxCell id="gemFI4QmH1A-u6PZFKJa-13" value="xload" style="rounded=1;whiteSpace=wrap;html=1;fontSize=12;glass=0;strokeWidth=1;shadow=0;" vertex="1" parent="WIyWlLk6GJQsqaUBKTNV-1">
          <mxGeometry x="400" y="240" width="70" height="40" as="geometry" />
        </mxCell>
        <mxCell id="gemFI4QmH1A-u6PZFKJa-19" style="edgeStyle=orthogonalEdgeStyle;rounded=0;orthogonalLoop=1;jettySize=auto;html=1;exitX=0.5;exitY=1;exitDx=0;exitDy=0;entryX=0.5;entryY=0;entryDx=0;entryDy=0;" edge="1" parent="WIyWlLk6GJQsqaUBKTNV-1" source="gemFI4QmH1A-u6PZFKJa-20" target="gemFI4QmH1A-u6PZFKJa-30">
          <mxGeometry relative="1" as="geometry" />
        </mxCell>
        <mxCell id="gemFI4QmH1A-u6PZFKJa-20" value="s2" style="rounded=1;whiteSpace=wrap;html=1;fontSize=12;glass=0;strokeWidth=1;shadow=0;" vertex="1" parent="WIyWlLk6GJQsqaUBKTNV-1">
          <mxGeometry x="160" y="320" width="70" height="40" as="geometry" />
        </mxCell>
        <mxCell id="gemFI4QmH1A-u6PZFKJa-21" style="edgeStyle=orthogonalEdgeStyle;rounded=0;orthogonalLoop=1;jettySize=auto;html=1;exitX=0.5;exitY=1;exitDx=0;exitDy=0;entryX=0.5;entryY=0;entryDx=0;entryDy=0;" edge="1" parent="WIyWlLk6GJQsqaUBKTNV-1" source="gemFI4QmH1A-u6PZFKJa-22" target="gemFI4QmH1A-u6PZFKJa-30">
          <mxGeometry relative="1" as="geometry" />
        </mxCell>
        <mxCell id="gemFI4QmH1A-u6PZFKJa-22" value="a7" style="rounded=1;whiteSpace=wrap;html=1;fontSize=12;glass=0;strokeWidth=1;shadow=0;" vertex="1" parent="WIyWlLk6GJQsqaUBKTNV-1">
          <mxGeometry x="240" y="320" width="70" height="40" as="geometry" />
        </mxCell>
        <mxCell id="gemFI4QmH1A-u6PZFKJa-23" style="edgeStyle=orthogonalEdgeStyle;rounded=0;orthogonalLoop=1;jettySize=auto;html=1;exitX=0.5;exitY=1;exitDx=0;exitDy=0;entryX=0.5;entryY=0;entryDx=0;entryDy=0;" edge="1" parent="WIyWlLk6GJQsqaUBKTNV-1" source="gemFI4QmH1A-u6PZFKJa-24" target="gemFI4QmH1A-u6PZFKJa-30">
          <mxGeometry relative="1" as="geometry" />
        </mxCell>
        <mxCell id="gemFI4QmH1A-u6PZFKJa-24" value="s11" style="rounded=1;whiteSpace=wrap;html=1;fontSize=12;glass=0;strokeWidth=1;shadow=0;" vertex="1" parent="WIyWlLk6GJQsqaUBKTNV-1">
          <mxGeometry x="320" y="320" width="70" height="40" as="geometry" />
        </mxCell>
        <mxCell id="gemFI4QmH1A-u6PZFKJa-25" style="edgeStyle=orthogonalEdgeStyle;rounded=0;orthogonalLoop=1;jettySize=auto;html=1;exitX=0.5;exitY=1;exitDx=0;exitDy=0;entryX=0.5;entryY=0;entryDx=0;entryDy=0;" edge="1" parent="WIyWlLk6GJQsqaUBKTNV-1" source="gemFI4QmH1A-u6PZFKJa-26" target="gemFI4QmH1A-u6PZFKJa-31">
          <mxGeometry relative="1" as="geometry" />
        </mxCell>
        <mxCell id="gemFI4QmH1A-u6PZFKJa-26" value="a5" style="rounded=1;whiteSpace=wrap;html=1;fontSize=12;glass=0;strokeWidth=1;shadow=0;" vertex="1" parent="WIyWlLk6GJQsqaUBKTNV-1">
          <mxGeometry x="400" y="320" width="70" height="40" as="geometry" />
        </mxCell>
        <mxCell id="gemFI4QmH1A-u6PZFKJa-29" style="edgeStyle=orthogonalEdgeStyle;rounded=0;orthogonalLoop=1;jettySize=auto;html=1;exitX=0.5;exitY=1;exitDx=0;exitDy=0;entryX=0;entryY=0.5;entryDx=0;entryDy=0;strokeColor=default;dashed=1;" edge="1" parent="WIyWlLk6GJQsqaUBKTNV-1" source="gemFI4QmH1A-u6PZFKJa-30" target="gemFI4QmH1A-u6PZFKJa-31">
          <mxGeometry relative="1" as="geometry" />
        </mxCell>
        <mxCell id="gemFI4QmH1A-u6PZFKJa-30" value="csrrw" style="rounded=1;whiteSpace=wrap;html=1;fontSize=12;glass=0;strokeWidth=1;shadow=0;" vertex="1" parent="WIyWlLk6GJQsqaUBKTNV-1">
          <mxGeometry x="240" y="400" width="70" height="40" as="geometry" />
        </mxCell>
        <mxCell id="gemFI4QmH1A-u6PZFKJa-31" value="yload" style="rounded=1;whiteSpace=wrap;html=1;fontSize=12;glass=0;strokeWidth=1;shadow=0;" vertex="1" parent="WIyWlLk6GJQsqaUBKTNV-1">
          <mxGeometry x="400" y="480" width="70" height="40" as="geometry" />
        </mxCell>
        <mxCell id="gemFI4QmH1A-u6PZFKJa-37" style="edgeStyle=orthogonalEdgeStyle;rounded=0;orthogonalLoop=1;jettySize=auto;html=1;exitX=0.5;exitY=1;exitDx=0;exitDy=0;entryX=0.5;entryY=0;entryDx=0;entryDy=0;" edge="1" parent="WIyWlLk6GJQsqaUBKTNV-1" source="gemFI4QmH1A-u6PZFKJa-38" target="gemFI4QmH1A-u6PZFKJa-44">
          <mxGeometry relative="1" as="geometry" />
        </mxCell>
        <mxCell id="gemFI4QmH1A-u6PZFKJa-38" value="s2" style="rounded=1;whiteSpace=wrap;html=1;fontSize=12;glass=0;strokeWidth=1;shadow=0;" vertex="1" parent="WIyWlLk6GJQsqaUBKTNV-1">
          <mxGeometry x="240" y="560" width="70" height="40" as="geometry" />
        </mxCell>
        <mxCell id="gemFI4QmH1A-u6PZFKJa-39" style="edgeStyle=orthogonalEdgeStyle;rounded=0;orthogonalLoop=1;jettySize=auto;html=1;exitX=0.5;exitY=1;exitDx=0;exitDy=0;entryX=0.5;entryY=0;entryDx=0;entryDy=0;" edge="1" parent="WIyWlLk6GJQsqaUBKTNV-1" source="gemFI4QmH1A-u6PZFKJa-40" target="gemFI4QmH1A-u6PZFKJa-44">
          <mxGeometry relative="1" as="geometry" />
        </mxCell>
        <mxCell id="gemFI4QmH1A-u6PZFKJa-40" value="s6" style="rounded=1;whiteSpace=wrap;html=1;fontSize=12;glass=0;strokeWidth=1;shadow=0;" vertex="1" parent="WIyWlLk6GJQsqaUBKTNV-1">
          <mxGeometry x="320" y="560" width="70" height="40" as="geometry" />
        </mxCell>
        <mxCell id="gemFI4QmH1A-u6PZFKJa-41" style="edgeStyle=orthogonalEdgeStyle;rounded=0;orthogonalLoop=1;jettySize=auto;html=1;exitX=0.5;exitY=1;exitDx=0;exitDy=0;entryX=0.5;entryY=0;entryDx=0;entryDy=0;" edge="1" parent="WIyWlLk6GJQsqaUBKTNV-1" source="gemFI4QmH1A-u6PZFKJa-42" target="gemFI4QmH1A-u6PZFKJa-45">
          <mxGeometry relative="1" as="geometry" />
        </mxCell>
        <mxCell id="gemFI4QmH1A-u6PZFKJa-42" value="a2" style="rounded=1;whiteSpace=wrap;html=1;fontSize=12;glass=0;strokeWidth=1;shadow=0;" vertex="1" parent="WIyWlLk6GJQsqaUBKTNV-1">
          <mxGeometry x="400" y="560" width="70" height="40" as="geometry" />
        </mxCell>
        <mxCell id="gemFI4QmH1A-u6PZFKJa-43" style="edgeStyle=orthogonalEdgeStyle;rounded=0;orthogonalLoop=1;jettySize=auto;html=1;exitX=0.5;exitY=1;exitDx=0;exitDy=0;entryX=0;entryY=0.5;entryDx=0;entryDy=0;strokeColor=default;dashed=1;" edge="1" parent="WIyWlLk6GJQsqaUBKTNV-1" source="gemFI4QmH1A-u6PZFKJa-44" target="gemFI4QmH1A-u6PZFKJa-45">
          <mxGeometry relative="1" as="geometry" />
        </mxCell>
        <mxCell id="gemFI4QmH1A-u6PZFKJa-44" value="csrrw" style="rounded=1;whiteSpace=wrap;html=1;fontSize=12;glass=0;strokeWidth=1;shadow=0;" vertex="1" parent="WIyWlLk6GJQsqaUBKTNV-1">
          <mxGeometry x="280" y="640" width="70" height="40" as="geometry" />
        </mxCell>
        <mxCell id="gemFI4QmH1A-u6PZFKJa-45" value="mma" style="rounded=1;whiteSpace=wrap;html=1;fontSize=12;glass=0;strokeWidth=1;shadow=0;" vertex="1" parent="WIyWlLk6GJQsqaUBKTNV-1">
          <mxGeometry x="400" y="720" width="70" height="40" as="geometry" />
        </mxCell>
        <mxCell id="gemFI4QmH1A-u6PZFKJa-47" style="edgeStyle=orthogonalEdgeStyle;rounded=0;orthogonalLoop=1;jettySize=auto;html=1;exitX=0.5;exitY=1;exitDx=0;exitDy=0;entryX=0.5;entryY=0;entryDx=0;entryDy=0;" edge="1" parent="WIyWlLk6GJQsqaUBKTNV-1" source="gemFI4QmH1A-u6PZFKJa-48" target="gemFI4QmH1A-u6PZFKJa-60">
          <mxGeometry relative="1" as="geometry" />
        </mxCell>
        <mxCell id="gemFI4QmH1A-u6PZFKJa-48" value="a2" style="rounded=1;whiteSpace=wrap;html=1;fontSize=12;glass=0;strokeWidth=1;shadow=0;" vertex="1" parent="WIyWlLk6GJQsqaUBKTNV-1">
          <mxGeometry x="40" y="800" width="70" height="40" as="geometry" />
        </mxCell>
        <mxCell id="gemFI4QmH1A-u6PZFKJa-49" style="edgeStyle=orthogonalEdgeStyle;rounded=0;orthogonalLoop=1;jettySize=auto;html=1;exitX=0.5;exitY=1;exitDx=0;exitDy=0;entryX=0.5;entryY=0;entryDx=0;entryDy=0;" edge="1" parent="WIyWlLk6GJQsqaUBKTNV-1" source="gemFI4QmH1A-u6PZFKJa-50" target="gemFI4QmH1A-u6PZFKJa-60">
          <mxGeometry relative="1" as="geometry" />
        </mxCell>
        <mxCell id="gemFI4QmH1A-u6PZFKJa-50" value="s2" style="rounded=1;whiteSpace=wrap;html=1;fontSize=12;glass=0;strokeWidth=1;shadow=0;" vertex="1" parent="WIyWlLk6GJQsqaUBKTNV-1">
          <mxGeometry x="120" y="800" width="70" height="40" as="geometry" />
        </mxCell>
        <mxCell id="gemFI4QmH1A-u6PZFKJa-51" style="edgeStyle=orthogonalEdgeStyle;rounded=0;orthogonalLoop=1;jettySize=auto;html=1;exitX=0.5;exitY=1;exitDx=0;exitDy=0;entryX=0.5;entryY=0;entryDx=0;entryDy=0;" edge="1" parent="WIyWlLk6GJQsqaUBKTNV-1" source="gemFI4QmH1A-u6PZFKJa-52" target="gemFI4QmH1A-u6PZFKJa-60">
          <mxGeometry relative="1" as="geometry" />
        </mxCell>
        <mxCell id="gemFI4QmH1A-u6PZFKJa-52" value="t3" style="rounded=1;whiteSpace=wrap;html=1;fontSize=12;glass=0;strokeWidth=1;shadow=0;" vertex="1" parent="WIyWlLk6GJQsqaUBKTNV-1">
          <mxGeometry x="200" y="800" width="70" height="40" as="geometry" />
        </mxCell>
        <mxCell id="gemFI4QmH1A-u6PZFKJa-53" style="edgeStyle=orthogonalEdgeStyle;rounded=0;orthogonalLoop=1;jettySize=auto;html=1;exitX=0.5;exitY=1;exitDx=0;exitDy=0;entryX=0.5;entryY=0;entryDx=0;entryDy=0;" edge="1" parent="WIyWlLk6GJQsqaUBKTNV-1" source="gemFI4QmH1A-u6PZFKJa-54" target="gemFI4QmH1A-u6PZFKJa-60">
          <mxGeometry relative="1" as="geometry" />
        </mxCell>
        <mxCell id="gemFI4QmH1A-u6PZFKJa-54" value="s10" style="rounded=1;whiteSpace=wrap;html=1;fontSize=12;glass=0;strokeWidth=1;shadow=0;" vertex="1" parent="WIyWlLk6GJQsqaUBKTNV-1">
          <mxGeometry x="280" y="800" width="70" height="40" as="geometry" />
        </mxCell>
        <mxCell id="gemFI4QmH1A-u6PZFKJa-55" style="edgeStyle=orthogonalEdgeStyle;rounded=0;orthogonalLoop=1;jettySize=auto;html=1;exitX=0.5;exitY=1;exitDx=0;exitDy=0;entryX=0.5;entryY=0;entryDx=0;entryDy=0;" edge="1" parent="WIyWlLk6GJQsqaUBKTNV-1" source="gemFI4QmH1A-u6PZFKJa-56" target="gemFI4QmH1A-u6PZFKJa-61">
          <mxGeometry relative="1" as="geometry" />
        </mxCell>
        <mxCell id="gemFI4QmH1A-u6PZFKJa-56" value="a4" style="rounded=1;whiteSpace=wrap;html=1;fontSize=12;glass=0;strokeWidth=1;shadow=0;" vertex="1" parent="WIyWlLk6GJQsqaUBKTNV-1">
          <mxGeometry x="360" y="800" width="70" height="40" as="geometry" />
        </mxCell>
        <mxCell id="gemFI4QmH1A-u6PZFKJa-57" style="edgeStyle=orthogonalEdgeStyle;rounded=0;orthogonalLoop=1;jettySize=auto;html=1;exitX=0.5;exitY=1;exitDx=0;exitDy=0;" edge="1" parent="WIyWlLk6GJQsqaUBKTNV-1" source="gemFI4QmH1A-u6PZFKJa-58">
          <mxGeometry relative="1" as="geometry">
            <mxPoint x="440" y="960" as="targetPoint" />
          </mxGeometry>
        </mxCell>
        <mxCell id="gemFI4QmH1A-u6PZFKJa-58" value="s5" style="rounded=1;whiteSpace=wrap;html=1;fontSize=12;glass=0;strokeWidth=1;shadow=0;" vertex="1" parent="WIyWlLk6GJQsqaUBKTNV-1">
          <mxGeometry x="440" y="800" width="70" height="40" as="geometry" />
        </mxCell>
        <mxCell id="gemFI4QmH1A-u6PZFKJa-59" style="edgeStyle=orthogonalEdgeStyle;rounded=0;orthogonalLoop=1;jettySize=auto;html=1;exitX=0.5;exitY=1;exitDx=0;exitDy=0;entryX=0;entryY=0.5;entryDx=0;entryDy=0;strokeColor=default;dashed=1;" edge="1" parent="WIyWlLk6GJQsqaUBKTNV-1" source="gemFI4QmH1A-u6PZFKJa-60" target="gemFI4QmH1A-u6PZFKJa-61">
          <mxGeometry relative="1" as="geometry" />
        </mxCell>
        <mxCell id="gemFI4QmH1A-u6PZFKJa-60" value="csrrw" style="rounded=1;whiteSpace=wrap;html=1;fontSize=12;glass=0;strokeWidth=1;shadow=0;" vertex="1" parent="WIyWlLk6GJQsqaUBKTNV-1">
          <mxGeometry x="160" y="880" width="70" height="40" as="geometry" />
        </mxCell>
        <mxCell id="gemFI4QmH1A-u6PZFKJa-61" value="psum" style="rounded=1;whiteSpace=wrap;html=1;fontSize=12;glass=0;strokeWidth=1;shadow=0;" vertex="1" parent="WIyWlLk6GJQsqaUBKTNV-1">
          <mxGeometry x="400" y="960" width="70" height="40" as="geometry" />
        </mxCell>
        <mxCell id="gemFI4QmH1A-u6PZFKJa-62" style="edgeStyle=orthogonalEdgeStyle;rounded=0;orthogonalLoop=1;jettySize=auto;html=1;exitX=0.5;exitY=1;exitDx=0;exitDy=0;entryX=0.5;entryY=0;entryDx=0;entryDy=0;" edge="1" parent="WIyWlLk6GJQsqaUBKTNV-1" source="gemFI4QmH1A-u6PZFKJa-63" target="gemFI4QmH1A-u6PZFKJa-75">
          <mxGeometry relative="1" as="geometry" />
        </mxCell>
        <mxCell id="gemFI4QmH1A-u6PZFKJa-63" value="t0" style="rounded=1;whiteSpace=wrap;html=1;fontSize=12;glass=0;strokeWidth=1;shadow=0;" vertex="1" parent="WIyWlLk6GJQsqaUBKTNV-1">
          <mxGeometry x="80" y="1040" width="70" height="40" as="geometry" />
        </mxCell>
        <mxCell id="gemFI4QmH1A-u6PZFKJa-64" style="edgeStyle=orthogonalEdgeStyle;rounded=0;orthogonalLoop=1;jettySize=auto;html=1;exitX=0.5;exitY=1;exitDx=0;exitDy=0;entryX=0.5;entryY=0;entryDx=0;entryDy=0;" edge="1" parent="WIyWlLk6GJQsqaUBKTNV-1" source="gemFI4QmH1A-u6PZFKJa-65" target="gemFI4QmH1A-u6PZFKJa-75">
          <mxGeometry relative="1" as="geometry" />
        </mxCell>
        <mxCell id="gemFI4QmH1A-u6PZFKJa-65" value="s7" style="rounded=1;whiteSpace=wrap;html=1;fontSize=12;glass=0;strokeWidth=1;shadow=0;" vertex="1" parent="WIyWlLk6GJQsqaUBKTNV-1">
          <mxGeometry x="160" y="1040" width="70" height="40" as="geometry" />
        </mxCell>
        <mxCell id="gemFI4QmH1A-u6PZFKJa-66" style="edgeStyle=orthogonalEdgeStyle;rounded=0;orthogonalLoop=1;jettySize=auto;html=1;exitX=0.5;exitY=1;exitDx=0;exitDy=0;entryX=0.5;entryY=0;entryDx=0;entryDy=0;" edge="1" parent="WIyWlLk6GJQsqaUBKTNV-1" source="gemFI4QmH1A-u6PZFKJa-67" target="gemFI4QmH1A-u6PZFKJa-75">
          <mxGeometry relative="1" as="geometry" />
        </mxCell>
        <mxCell id="gemFI4QmH1A-u6PZFKJa-67" value="s4" style="rounded=1;whiteSpace=wrap;html=1;fontSize=12;glass=0;strokeWidth=1;shadow=0;" vertex="1" parent="WIyWlLk6GJQsqaUBKTNV-1">
          <mxGeometry x="240" y="1040" width="70" height="40" as="geometry" />
        </mxCell>
        <mxCell id="gemFI4QmH1A-u6PZFKJa-68" style="edgeStyle=orthogonalEdgeStyle;rounded=0;orthogonalLoop=1;jettySize=auto;html=1;exitX=0.5;exitY=1;exitDx=0;exitDy=0;entryX=0.414;entryY=0;entryDx=0;entryDy=0;entryPerimeter=0;" edge="1" parent="WIyWlLk6GJQsqaUBKTNV-1" source="gemFI4QmH1A-u6PZFKJa-69" target="gemFI4QmH1A-u6PZFKJa-76">
          <mxGeometry relative="1" as="geometry" />
        </mxCell>
        <mxCell id="gemFI4QmH1A-u6PZFKJa-69" value="s1" style="rounded=1;whiteSpace=wrap;html=1;fontSize=12;glass=0;strokeWidth=1;shadow=0;" vertex="1" parent="WIyWlLk6GJQsqaUBKTNV-1">
          <mxGeometry x="320" y="1040" width="70" height="40" as="geometry" />
        </mxCell>
        <mxCell id="gemFI4QmH1A-u6PZFKJa-70" style="edgeStyle=orthogonalEdgeStyle;rounded=0;orthogonalLoop=1;jettySize=auto;html=1;exitX=0.5;exitY=1;exitDx=0;exitDy=0;entryX=0.5;entryY=0;entryDx=0;entryDy=0;" edge="1" parent="WIyWlLk6GJQsqaUBKTNV-1" source="gemFI4QmH1A-u6PZFKJa-71" target="gemFI4QmH1A-u6PZFKJa-76">
          <mxGeometry relative="1" as="geometry" />
        </mxCell>
        <mxCell id="gemFI4QmH1A-u6PZFKJa-71" value="t6" style="rounded=1;whiteSpace=wrap;html=1;fontSize=12;glass=0;strokeWidth=1;shadow=0;" vertex="1" parent="WIyWlLk6GJQsqaUBKTNV-1">
          <mxGeometry x="400" y="1040" width="70" height="40" as="geometry" />
        </mxCell>
        <mxCell id="gemFI4QmH1A-u6PZFKJa-72" style="edgeStyle=orthogonalEdgeStyle;rounded=0;orthogonalLoop=1;jettySize=auto;html=1;exitX=0.5;exitY=1;exitDx=0;exitDy=0;" edge="1" parent="WIyWlLk6GJQsqaUBKTNV-1" source="gemFI4QmH1A-u6PZFKJa-73">
          <mxGeometry relative="1" as="geometry">
            <mxPoint x="440" y="1200" as="targetPoint" />
          </mxGeometry>
        </mxCell>
        <mxCell id="gemFI4QmH1A-u6PZFKJa-73" value="s0" style="rounded=1;whiteSpace=wrap;html=1;fontSize=12;glass=0;strokeWidth=1;shadow=0;" vertex="1" parent="WIyWlLk6GJQsqaUBKTNV-1">
          <mxGeometry x="480" y="1040" width="70" height="40" as="geometry" />
        </mxCell>
        <mxCell id="gemFI4QmH1A-u6PZFKJa-74" style="edgeStyle=orthogonalEdgeStyle;rounded=0;orthogonalLoop=1;jettySize=auto;html=1;exitX=0.5;exitY=1;exitDx=0;exitDy=0;entryX=0;entryY=0.5;entryDx=0;entryDy=0;strokeColor=default;dashed=1;" edge="1" parent="WIyWlLk6GJQsqaUBKTNV-1" source="gemFI4QmH1A-u6PZFKJa-75" target="gemFI4QmH1A-u6PZFKJa-76">
          <mxGeometry relative="1" as="geometry" />
        </mxCell>
        <mxCell id="gemFI4QmH1A-u6PZFKJa-75" value="csrrw" style="rounded=1;whiteSpace=wrap;html=1;fontSize=12;glass=0;strokeWidth=1;shadow=0;" vertex="1" parent="WIyWlLk6GJQsqaUBKTNV-1">
          <mxGeometry x="160" y="1120" width="70" height="40" as="geometry" />
        </mxCell>
        <mxCell id="gemFI4QmH1A-u6PZFKJa-76" value="ppu" style="rounded=1;whiteSpace=wrap;html=1;fontSize=12;glass=0;strokeWidth=1;shadow=0;" vertex="1" parent="WIyWlLk6GJQsqaUBKTNV-1">
          <mxGeometry x="400" y="1200" width="70" height="40" as="geometry" />
        </mxCell>
      </root>
    </mxGraphModel>
  </diagram>
</mxfile>
